<?xml version="1.0" encoding="UTF-8"?>
<!-- Uploaded to: SVG Find, www.svgrepo.com, Generator: SVG Find Mixer Tools -->
<svg width="800px" height="800px" version="1.1" viewBox="144 144 512 512" xmlns="http://www.w3.org/2000/svg">
 <defs>
  <clipPath id="d">
   <path d="m235 148.09h330v340.91h-330z"/>
  </clipPath>
  <clipPath id="c">
   <path d="m597 305h54.902v16h-54.902z"/>
  </clipPath>
  <clipPath id="b">
   <path d="m148.09 305h54.906v16h-54.906z"/>
  </clipPath>
  <clipPath id="a">
   <path d="m353 622h94v29.902h-94z"/>
  </clipPath>
 </defs>
 <path d="m493.48 528.9h-186.96c-7.9102 0-15.219 4.2188-19.176 11.07-3.9531 6.8516-3.9531 15.289 0 22.141 3.957 6.8516 11.266 11.07 19.176 11.07h17.219v19.68c0 3.9141 1.5547 7.668 4.3242 10.438 2.7656 2.7656 6.5195 4.3242 10.438 4.3242h123c3.9141 0 7.668-1.5586 10.438-4.3242 2.7656-2.7695 4.3203-6.5234 4.3203-10.438v-19.68h17.223c7.9102 0 15.219-4.2188 19.172-11.07 3.957-6.8516 3.957-15.289 0-22.141-3.9531-6.8516-11.262-11.07-19.172-11.07z"/>
 <path d="m493.48 514.14c1.1602 0 2.3008 0.058594 3.4336 0.16797 0.32813-3.4766 0.73047-6.9414 1.2109-10.391-26.422-16.898-61.148-26.188-98.125-26.188-36.98 0-71.664 9.2773-98.086 26.156 0.48047 3.4648 0.875 6.8867 1.1914 10.422 1.1328-0.10938 2.2617-0.16797 3.4141-0.16797z"/>
 <g clip-path="url(#d)">
  <path d="m405.73 148.19c-40.816-1.4141-80.703 12.375-111.93 38.691-31.23 26.32-51.574 63.293-57.098 103.76-5.5195 40.465 4.1797 81.539 27.215 115.26 17.078 24.852 29.074 52.828 35.297 82.332 26.164-15.262 58.773-24.07 93.41-25.16v-103.91c-1.4805-4.3672-3.6211-8.4766-6.3438-12.195-12.555 5.3125-24.602 7.9805-35.965 7.9805h-0.003906c-9.1719 0.039062-18.254-1.793-26.695-5.3789-34.301-14.555-47.637-53.371-48.215-55.016-0.625-1.8594-0.48438-3.8867 0.39062-5.6406 0.87109-1.7539 2.4062-3.0859 4.2617-3.7109 38.898-13.027 69.105-12.223 89.77 2.3906 21.027 14.867 25.004 39.125 25.762 47.379l0.003906 0.003906c1.5859 1.8711 3.0508 3.8438 4.3867 5.9023 1.3359-2.0586 2.8008-4.0312 4.3906-5.9023 0.75781-8.2539 4.7344-32.473 25.762-47.379 20.664-14.613 50.871-15.418 89.77-2.3906v-0.003906c1.8555 0.625 3.3906 1.957 4.2617 3.7109 0.875 1.7539 1.0156 3.7812 0.39062 5.6406-0.55078 1.6445-13.883 40.461-48.215 55.016-8.4414 3.5859-17.523 5.418-26.695 5.3789-11.406 0-23.43-2.6758-35.996-8-2.707 3.7227-4.8359 7.8281-6.3164 12.184v103.96c34.676 1.0938 67.316 9.9102 93.48 25.211 6.4062-29.719 18.508-57.91 35.641-83.023 22.094-32.656 31.75-72.156 27.211-111.33-4.5352-39.168-22.965-75.414-51.941-102.16-28.977-26.746-66.578-42.215-105.98-43.605z"/>
 </g>
 <path d="m336.53 309.86c9.9805 0.17188 19.867 1.9492 29.281 5.2656 3.8125 1.3359 7.5117 2.9648 11.07 4.8711-3.125-8.1875-8.5664-15.285-15.664-20.43-15.359-10.824-38.504-11.711-68.879-2.7539 5.0469 10.637 16.828 30.641 37.117 39.203 13.266 5.6094 28.34 5.4922 44.91-0.28516-16.727-11.188-37.391-11.121-37.668-11.121-4.0781 0.050781-7.4219-3.2148-7.4688-7.2891-0.050781-4.0781 3.2148-7.4219 7.2891-7.4688z"/>
 <path d="m463.38 324.62h-0.078125c-1.25 0-21.402 0-37.805 11.07 16.629 5.8242 31.742 5.9531 45.039 0.33594 20.281-8.5625 32.07-28.535 37.117-39.203-30.367-8.9531-53.5-8.0312-68.879 2.7539h-0.003907c-7.0977 5.1406-12.543 12.238-15.668 20.426 3.5586-1.9062 7.2617-3.5352 11.07-4.8711 9.418-3.3086 19.305-5.0859 29.285-5.2617 4.0742 0.023438 7.3594 3.3477 7.3359 7.4219-0.023438 4.0781-3.3477 7.3594-7.4258 7.3359z"/>
 <g clip-path="url(#c)">
  <path d="m644.52 305.54h-39.359c-4.0781 0-7.3828 3.3047-7.3828 7.3789 0 4.0742 3.3047 7.3789 7.3828 7.3789h39.359c4.0742 0 7.3789-3.3047 7.3789-7.3789 0-4.0742-3.3047-7.3789-7.3789-7.3789z"/>
 </g>
 <path d="m590.4 273.64c1.7383 0 3.418-0.61328 4.7422-1.7344l29.52-24.766h0.003907c1.5312-1.25 2.5-3.0586 2.6875-5.0273 0.1875-1.9648-0.42188-3.9258-1.6953-5.4414-1.2695-1.5156-3.0938-2.457-5.0625-2.6133-1.9727-0.15625-3.9219 0.48047-5.418 1.7734l-29.52 24.766v0.003907c-2.3789 1.9922-3.2578 5.2617-2.1953 8.1797 1.0586 2.918 3.832 4.8594 6.9375 4.8594z"/>
 <path d="m624.67 378.68-29.52-24.766h-0.003907c-1.4922-1.293-3.4453-1.9336-5.4141-1.7734-1.9727 0.15625-3.7969 1.0977-5.0664 2.6133-1.2695 1.5117-1.8789 3.4727-1.6914 5.4414 0.1875 1.9648 1.1562 3.7773 2.6875 5.0234l29.52 24.766v0.003907c1.4961 1.293 3.4453 1.9297 5.418 1.7734 1.9688-0.15625 3.793-1.0977 5.0625-2.6133 1.2734-1.5156 1.8828-3.4727 1.6953-5.4414s-1.1562-3.7773-2.6875-5.0273z"/>
 <g clip-path="url(#b)">
  <path d="m202.21 312.91c0-1.957-0.77734-3.8359-2.1641-5.2188-1.3828-1.3828-3.2578-2.1602-5.2188-2.1602h-39.359c-4.0742 0-7.3789 3.3047-7.3789 7.3789 0 4.0742 3.3047 7.3789 7.3789 7.3789h39.359c1.9609 0 3.8359-0.77734 5.2188-2.1602 1.3867-1.3828 2.1641-3.2617 2.1641-5.2188z"/>
 </g>
 <path d="m214.34 260.61-29.52-24.766v-0.003906c-1.4961-1.293-3.4453-1.9297-5.4141-1.7734-1.9727 0.15625-3.7969 1.0977-5.0664 2.6133-1.2695 1.5156-1.8789 3.4766-1.6953 5.4414 0.1875 1.9688 1.1562 3.7773 2.6914 5.0273l29.52 24.766c1.4961 1.293 3.4453 1.9336 5.4141 1.7734 1.9727-0.15625 3.7969-1.0977 5.0664-2.6133 1.2695-1.5117 1.8789-3.4727 1.6914-5.4414-0.18359-1.9648-1.1523-3.7773-2.6875-5.0234z"/>
 <path d="m204.85 353.92-29.52 24.766c-1.5352 1.25-2.5039 3.0586-2.6914 5.0273-0.18359 1.9688 0.42578 3.9258 1.6953 5.4414 1.2695 1.5156 3.0938 2.457 5.0664 2.6133 1.9688 0.15625 3.918-0.48047 5.4141-1.7734l29.52-24.766v-0.003906c1.5352-1.2461 2.5039-3.0586 2.6875-5.0234 0.1875-1.9688-0.42188-3.9297-1.6914-5.4414-1.2695-1.5156-3.0938-2.457-5.0664-2.6133-1.9688-0.16016-3.918 0.48047-5.4141 1.7734z"/>
 <g clip-path="url(#a)">
  <path d="m353.26 644.52c0 4.0742 3.3047 7.3789 7.3789 7.3789h78.723c1.957 0 3.832-0.77734 5.2188-2.1602 1.3828-1.3828 2.1602-3.2617 2.1602-5.2188v-22.141h-93.48z"/>
 </g>
</svg>